<svg height="511pt" viewBox="-4 1 511 511.99975" width="511pt" xmlns="http://www.w3.org/2000/svg"><path d="m287.152344 384.527344c3.789062-2.453125 7.546875-5.160156 11.132812-8.066406 15.199219-12.3125 25.25-26.320313 29.246094-40.488282 16.632812-4.859375 27.234375-21.796875 23.6875-39.207031 6.144531-.402344 11.011719-5.519531 11.011719-11.773437v-30.078126c0-15.832031-12.082031-28.910156-27.511719-30.453124 1.890625-7.835938 1.460938-8.582032 1.460938-53.914063 0-12.324219-13.050782-19.8125-22.863282-13.15625-12.816406 8.648437-35.640625 14.066406-66 15.679687-4.148437.222657-7.328125 3.757813-7.105468 7.90625.21875 4.148438 3.746093 7.34375 7.90625 7.105469 33.113281-1.765625 57.664062-7.757812 73.003906-17.835937.046875.1875.027344 41.699218.027344 41.890625 0 14.167969-7.824219 26.320312-18.855469 31.34375-7.390625 3.375-5.25 2.496093-93.34375 2.496093-8.285157 0-15.488281-4.386718-20.101563-10.863281-13.371094-18.519531-1.789062-46.867187 19.871094-47.082031 2.136719.160156 7.925781.390625 8.925781.390625 4.050781 0 7.394531-3.214844 7.515625-7.285156.121094-4.148438-3.144531-7.613281-7.292968-7.734375-4.585938-.140625-8.917969-.402344-8.917969-.402344-25.257813 0-44.585938 24.648438-40.210938 51.5625-15.019531 1.933594-26.660156 14.808594-26.660156 30.351562v30.078126c0 6.253906 4.867187 11.371093 11.011719 11.773437-3.550782 17.414063 7.054687 34.335937 23.683594 39.195313 4 14.167968 14.039062 28.1875 29.25 40.5 3.585937 2.90625 7.34375 5.613281 11.132812 8.066406-47.984375 7.984375-84.476562 49.257812-84.476562 99.527344 0 15.410156 12.535156 27.945312 27.933593 27.945312h4.757813c4.148437 0 7.515625-3.367188 7.515625-7.515625s-3.367188-7.515625-7.515625-7.515625h-4.757813c-7.113281 0-12.90625-5.789062-12.90625-12.914062 0-24.898438 10.667969-47.691407 27.675781-63.113282-.441406 2.835938-.652343 5.878906-.613281 9.175782.109375 9.761718 11.707031 14.769531 19.160157 8.566406l15.179687-10.96875c38.953125 16.960937 33.710937 14.601562 35.53125 15.648437v53.605469h-49.207031c-4.148438 0-7.515625 3.367188-7.515625 7.515625s3.367187 7.515625 7.515625 7.515625h148.261718c15.4375 0 27.933594-12.480469 27.933594-27.945312 0-52.519532-40.195312-93.332032-84.476562-99.527344zm11.734375 18.40625c.007812.011718.019531.011718.03125.011718 7.292969 2.640626 13.453125 9.5625 15.097656 19.820313-17.851563-12.882813-14.984375-13.027344-33.535156-5.132813 3.097656-3.363281 2.472656-3.726562 2.472656-18.546874 4.046875.503906 10.742187 1.996093 15.933594 3.847656zm30.601562-84.527344v-21.863281c2.429688.289062 3.839844.253906 6.140625.253906 2.914063 7.542969.601563 16.4375-6.140625 21.609375zm-14.300781-65.035156c5.191406-3.582032 9.726562-8.308594 13.207031-13.867188 10.882813-1.601562 18.808594 6.300782 18.808594 15.410156v26.851563c-14.632813 0-15.085937.148437-17.714844-.472656-6.113281-1.382813-11.082031-5.808594-13.226562-11.601563-1.734375-4.597656-1.171875-15.308594-1.074219-16.320312zm-140.367188 65.035156c-6.835937-5.257812-9.015624-14.175781-6.140624-21.609375 2.246093 0 3.683593.039063 6.140624-.253906zm13.226563-48.714844c-2.652344 7.167969-9.539063 12.074219-17.34375 12.074219-5.132813 0-8.40625 0-13.597656 0v-26.851563c0-7.714843 5.738281-15.582031 16.695312-15.582031 3.625 6.65625 9.011719 12.359375 15.398438 16.160157 0 8.167968.277343 10.410156-1.152344 14.199218zm27.433594 95.097656c-7.011719-5.679687-17.511719-15.710937-22.625-28.125-1.863281-4.527343-3.003907-9.367187-3.003907-14.429687v-31.460937c10.46875-7.304688 14.378907-17.5625 14.378907-30.058594 3.339843.410156-2.492188.289062 86.691406.289062 3.136719 0 6.199219-.351562 9.15625-1 0 12.855469 3.496094 23.171875 14.378906 30.769532 0 32.734374.976563 36.171874-3.007812 45.902343-5.109375 12.402344-15.609375 22.433594-22.621094 28.113281-15.480469 12.523438-31.03125 18.367188-36.675781 18.367188-5.640625 0-21.191406-5.84375-36.671875-18.367188zm-25.1875 57.976563c1.382812-8.609375 5.660156-14.871094 12.953125-19.039063 4.867187-1.882812 11.609375-3.730468 18.097656-4.640624 0 15.398437-.589844 15.09375 2.585938 18.6875-18.804688-8.175782-15.914063-7.808594-33.636719 4.992187zm46.078125-13.609375v-13.867188c.152344-.191406.28125-.378906.402344-.582031 11.921874 4.5625 18.773437 4.65625 31.152343-.148437v14.507812l-16.152343 17.414063zm107.324218 87.8125h-84.027343v-54.15625l35.519531-15.097656 15.191406 10.960937c7.363282 6.164063 19.050782 1.28125 19.15625-8.558593.042969-3.296876-.167968-6.339844-.601562-9.175782 17.625 16.242188 27.667968 39.035156 27.667968 63.113282 0 7.105468-5.738281 12.914062-12.90625 12.914062zm0 0"/><path d="m273.59375 333.035156c0-4.152344-3.363281-7.515625-7.515625-7.515625s-7.515625 3.363281-7.515625 7.515625c0 3.535156-2.875 6.410156-6.410156 6.410156-3.53125 0-6.40625-2.875-6.40625-6.410156 0-4.152344-3.367188-7.515625-7.515625-7.515625-4.152344 0-7.515625 3.363281-7.515625 7.515625 0 11.820313 9.617187 21.441406 21.4375 21.441406 11.824218 0 21.441406-9.621093 21.441406-21.441406zm0 0"/><path d="m296.207031 309.964844c0 4.570312-3.703125 8.273437-8.273437 8.273437-4.566406 0-8.269532-3.703125-8.269532-8.273437 0-4.566406 3.703126-8.269532 8.269532-8.269532 4.570312 0 8.273437 3.703126 8.273437 8.269532zm0 0"/><path d="m224.644531 309.964844c0 4.570312-3.703125 8.273437-8.269531 8.273437-4.570312 0-8.273438-3.703125-8.273438-8.273437 0-4.566406 3.703126-8.269532 8.273438-8.269532 4.566406 0 8.269531 3.703126 8.269531 8.269532zm0 0"/><path d="m278.320312 298.507812c4.753907-.992187 16.300782-1.941406 21.679688 1.441407 3.515625 2.207031 8.152344 1.148437 10.359375-2.363281 2.210937-3.515626 1.152344-8.152344-2.359375-10.363282-11.910156-7.484375-30.648438-3.867187-32.746094-3.429687-4.0625.847656-6.667968 4.828125-5.820312 8.890625.84375 4.0625 4.828125 6.683594 8.886718 5.824218zm0 0"/><path d="m234.875 292.683594c.847656-4.0625-1.757812-8.042969-5.824219-8.890625-2.09375-.4375-20.832031-4.054688-32.742187 3.429687-3.511719 2.210938-4.570313 6.847656-2.363282 10.363282 2.210938 3.511718 6.847657 4.570312 10.363282 2.363281 5.136718-3.234375 16.03125-2.597657 21.691406-1.441407 4.058594.839844 8.03125-1.765624 8.875-5.824218zm0 0"/><path d="m277.402344 459.492188c0 3.535156-2.863282 6.398437-6.398438 6.398437-3.53125 0-6.398437-2.863281-6.398437-6.398437 0-3.535157 2.867187-6.398438 6.398437-6.398438 3.535156 0 6.398438 2.863281 6.398438 6.398438zm0 0"/><path d="m277.402344 485.925781c0 3.535157-2.863282 6.398438-6.398438 6.398438-3.53125 0-6.398437-2.863281-6.398437-6.398438 0-3.535156 2.867187-6.398437 6.398437-6.398437 3.535156 0 6.398438 2.863281 6.398438 6.398437zm0 0"/><path d="m219.320312 64.382812c3.59375 2.074219 8.1875.84375 10.265626-2.75l15.054687-26.078124v85.074218c0 4.152344 3.363281 7.515625 7.511719 7.515625 4.152344 0 7.515625-3.363281 7.515625-7.515625v-85.074218l15.054687 26.078124c1.394532 2.410157 3.917969 3.757813 6.515625 3.757813 5.730469 0 9.40625-6.246094 6.5-11.273437l-29.078125-50.363282c-2.890625-5.007812-10.128906-5-13.015625 0l-29.078125 50.363282c-2.074218 3.59375-.839844 8.191406 2.753906 10.265624zm0 0"/><path d="m129.515625 106.871094c4.152344 0 7.515625-3.363282 7.515625-7.511719v-30.113281l42.535156 73.675781c1.394532 2.414063 3.917969 3.761719 6.515625 3.761719 5.730469 0 9.40625-6.246094 6.5-11.273438l-42.535156-73.679687 26.074219 15.058593c3.597656 2.070313 8.191406.84375 10.265625-2.753906 2.074219-3.59375.84375-8.1875-2.75-10.261718l-50.363281-29.082032c-5.007813-2.890625-11.273438.738282-11.273438 6.507813v58.160156c0 4.148437 3.363281 7.511719 7.515625 7.511719zm0 0"/><path d="m62.722656 185.820312c2.074219 3.59375 6.671875 4.824219 10.265625 2.75 3.59375-2.074218 4.824219-6.671874 2.75-10.265624l-15.054687-26.074219c80.050781 46.21875 74.5625 43.542969 77.425781 43.542969 7.65625 0 10.410156-10.1875 3.765625-14.023438l-73.679688-42.535156h30.109376c4.152343 0 7.515624-3.363282 7.515624-7.515625 0-4.152344-3.363281-7.515625-7.515624-7.515625h-58.152344c-5.78125 0-9.394532 6.273437-6.507813 11.273437zm0 0"/><path d="m121.128906 247.238281h-85.074218l26.078124-15.054687c3.59375-2.074219 4.824219-6.671875 2.75-10.265625-2.078124-3.59375-6.675781-4.824219-10.265624-2.75l-50.363282 29.078125c-5.007812 2.890625-5 10.128906 0 13.015625 54.707032 31.585937 51.300782 30.085937 54.113282 30.085937 7.660156 0 10.410156-10.1875 3.765624-14.023437l-26.078124-15.058594h85.074218c4.152344 0 7.515625-3.363281 7.515625-7.511719 0-4.152344-3.363281-7.515625-7.515625-7.515625zm0 0"/><path d="m318.226562 146.683594c2.597657 0 5.121094-1.347656 6.515626-3.761719l42.535156-73.675781v30.113281c0 4.148437 3.363281 7.511719 7.515625 7.511719 4.152343 0 7.515625-3.363282 7.515625-7.511719v-58.160156c0-5.78125-6.273438-9.394531-11.273438-6.507813l-50.363281 29.082032c-3.597656 2.074218-4.828125 6.667968-2.753906 10.261718 2.074219 3.597656 6.675781 4.824219 10.265625 2.753906l26.078125-15.058593-42.539063 73.679687c-2.902344 5.03125.773438 11.273438 6.503906 11.273438zm0 0"/><path d="m406 139.210938h30.109375l-73.675781 42.539062c-3.59375 2.074219-4.824219 6.671875-2.75 10.265625 2.078125 3.597656 6.675781 4.824219 10.265625 2.75l73.675781-42.539063-15.054688 26.078126c-2.074218 3.59375-.84375 8.191406 2.75 10.265624 3.597657 2.074219 8.191407.839844 10.265626-2.75l29.078124-50.367187c2.890626-5.007813-.734374-11.269531-6.507812-11.269531h-58.15625c-4.152344 0-7.515625 3.363281-7.515625 7.511718 0 4.152344 3.363281 7.515626 7.515625 7.515626zm0 0"/><path d="m500.054688 248.246094-50.363282-29.078125c-3.597656-2.078125-8.191406-.847657-10.265625 2.75-2.074219 3.59375-.84375 8.1875 2.75 10.265625l26.078125 15.054687h-85.078125c-4.148437 0-7.511719 3.363281-7.511719 7.511719 0 4.152344 3.363282 7.515625 7.511719 7.515625h85.078125l-26.078125 15.054687c-3.59375 2.078126-4.828125 6.671876-2.75 10.265626 2.078125 3.597656 6.675781 4.824218 10.265625 2.75l50.363282-29.078126c5.007812-2.890624 5-10.128906 0-13.011718zm0 0"/></svg>